<mxfile host="65bd71144e">
    <diagram id="F32Wozbuce5f7aYlL-rj" name="Page-1">
        <mxGraphModel dx="1174" dy="1303" grid="1" gridSize="10" guides="1" tooltips="1" connect="1" arrows="1" fold="1" page="1" pageScale="1" pageWidth="1700" pageHeight="1100" math="0" shadow="0">
            <root>
                <mxCell id="0"/>
                <mxCell id="1" parent="0"/>
                <mxCell id="2" value="main" style="shape=umlLifeline;perimeter=lifelinePerimeter;whiteSpace=wrap;html=1;container=1;collapsible=0;recursiveResize=0;outlineConnect=0;fillColor=#dae8fc;strokeColor=#6c8ebf;fontSize=13;" parent="1" vertex="1">
                    <mxGeometry x="248" y="40" width="100" height="1070" as="geometry"/>
                </mxCell>
                <mxCell id="3" value="Invokes the Bookings function&amp;nbsp;" style="html=1;verticalAlign=bottom;endArrow=block;fontSize=13;" parent="2" target="4" edge="1">
                    <mxGeometry x="-0.0004" width="80" relative="1" as="geometry">
                        <mxPoint x="50" y="100" as="sourcePoint"/>
                        <mxPoint x="130" y="100" as="targetPoint"/>
                        <mxPoint as="offset"/>
                    </mxGeometry>
                </mxCell>
                <mxCell id="4" value="Bookings" style="shape=umlLifeline;perimeter=lifelinePerimeter;whiteSpace=wrap;html=1;container=1;collapsible=0;recursiveResize=0;outlineConnect=0;fillColor=#dae8fc;strokeColor=#6c8ebf;fontSize=13;" parent="1" vertex="1">
                    <mxGeometry x="498" y="40" width="100" height="1070" as="geometry"/>
                </mxCell>
                <mxCell id="5" value="Can I have the bookings, bands, and venues arrays of objects?&amp;nbsp;" style="html=1;verticalAlign=bottom;endArrow=block;fontSize=13;" parent="4" target="10" edge="1">
                    <mxGeometry width="80" relative="1" as="geometry">
                        <mxPoint x="52" y="120" as="sourcePoint"/>
                        <mxPoint x="132" y="120" as="targetPoint"/>
                    </mxGeometry>
                </mxCell>
                <mxCell id="6" value="Invokes the Venues function&amp;nbsp;" style="html=1;verticalAlign=bottom;endArrow=block;fontSize=13;" parent="4" target="7" edge="1">
                    <mxGeometry x="0.001" width="80" relative="1" as="geometry">
                        <mxPoint x="-198" y="260" as="sourcePoint"/>
                        <mxPoint x="290" y="260" as="targetPoint"/>
                        <mxPoint as="offset"/>
                    </mxGeometry>
                </mxCell>
                <mxCell id="7" value="Venues&amp;nbsp; &amp;nbsp;" style="shape=umlLifeline;perimeter=lifelinePerimeter;whiteSpace=wrap;html=1;container=1;collapsible=0;recursiveResize=0;outlineConnect=0;fillColor=#dae8fc;strokeColor=#6c8ebf;fontSize=13;" parent="1" vertex="1">
                    <mxGeometry x="748" y="40" width="100" height="1070" as="geometry"/>
                </mxCell>
                <mxCell id="8" value="Bands" style="shape=umlLifeline;perimeter=lifelinePerimeter;whiteSpace=wrap;html=1;container=1;collapsible=0;recursiveResize=0;outlineConnect=0;fillColor=#dae8fc;strokeColor=#6c8ebf;fontSize=13;" parent="1" vertex="1">
                    <mxGeometry x="988" y="40" width="100" height="1070" as="geometry"/>
                </mxCell>
                <mxCell id="9" value="Returns and displays list of bands&amp;nbsp;" style="html=1;verticalAlign=bottom;endArrow=open;dashed=1;endSize=8;fontSize=13;" parent="8" edge="1">
                    <mxGeometry relative="1" as="geometry">
                        <mxPoint x="50.5" y="490" as="sourcePoint"/>
                        <mxPoint x="-690" y="490" as="targetPoint"/>
                    </mxGeometry>
                </mxCell>
                <mxCell id="10" value="database" style="shape=umlLifeline;perimeter=lifelinePerimeter;whiteSpace=wrap;html=1;container=1;collapsible=0;recursiveResize=0;outlineConnect=0;fillColor=#dae8fc;strokeColor=#6c8ebf;fontSize=13;" parent="1" vertex="1">
                    <mxGeometry x="1238" y="40" width="100" height="1070" as="geometry"/>
                </mxCell>
                <mxCell id="12" value="Here are the band objects" style="html=1;verticalAlign=bottom;endArrow=open;dashed=1;endSize=8;fontSize=13;" parent="10" edge="1">
                    <mxGeometry x="0.032" relative="1" as="geometry">
                        <mxPoint x="50" y="460" as="sourcePoint"/>
                        <mxPoint x="-200" y="460" as="targetPoint"/>
                        <mxPoint as="offset"/>
                        <Array as="points">
                            <mxPoint x="-39.5" y="460"/>
                        </Array>
                    </mxGeometry>
                </mxCell>
                <mxCell id="13" value="Returns and displays list of Bookings" style="html=1;verticalAlign=bottom;endArrow=open;dashed=1;endSize=8;fontSize=13;" parent="1" source="4" target="2" edge="1">
                    <mxGeometry x="0.0252" relative="1" as="geometry">
                        <mxPoint x="548" y="180" as="sourcePoint"/>
                        <mxPoint x="468" y="180" as="targetPoint"/>
                        <mxPoint as="offset"/>
                        <Array as="points">
                            <mxPoint x="458" y="220"/>
                        </Array>
                    </mxGeometry>
                </mxCell>
                <mxCell id="14" value="Here are the bookings, bands, and venues objects" style="html=1;verticalAlign=bottom;endArrow=open;dashed=1;endSize=8;fontSize=13;" parent="1" target="4" edge="1">
                    <mxGeometry x="0.0007" relative="1" as="geometry">
                        <mxPoint x="1288" y="190" as="sourcePoint"/>
                        <mxPoint x="1208" y="190" as="targetPoint"/>
                        <mxPoint as="offset"/>
                    </mxGeometry>
                </mxCell>
                <mxCell id="15" value="Can I have the array of venues objects?&amp;nbsp;" style="html=1;verticalAlign=bottom;endArrow=block;fontSize=13;" parent="1" edge="1">
                    <mxGeometry width="80" relative="1" as="geometry">
                        <mxPoint x="798" y="320" as="sourcePoint"/>
                        <mxPoint x="1288" y="320" as="targetPoint"/>
                    </mxGeometry>
                </mxCell>
                <mxCell id="16" value="Invokes the Bands function" style="html=1;verticalAlign=bottom;endArrow=block;fontSize=13;" parent="1" target="8" edge="1">
                    <mxGeometry width="80" relative="1" as="geometry">
                        <mxPoint x="299.25" y="450" as="sourcePoint"/>
                        <mxPoint x="796.75" y="450" as="targetPoint"/>
                    </mxGeometry>
                </mxCell>
                <mxCell id="17" value="Can I have the array of band objects?&amp;nbsp;" style="html=1;verticalAlign=bottom;endArrow=block;fontSize=13;" parent="1" source="8" edge="1">
                    <mxGeometry width="80" relative="1" as="geometry">
                        <mxPoint x="808" y="470" as="sourcePoint"/>
                        <mxPoint x="1288" y="470" as="targetPoint"/>
                    </mxGeometry>
                </mxCell>
                <mxCell id="18" value="Returns&amp;nbsp; and displays list of venues" style="html=1;verticalAlign=bottom;endArrow=open;dashed=1;endSize=8;fontSize=13;" parent="1" source="7" target="2" edge="1">
                    <mxGeometry x="0.0282" relative="1" as="geometry">
                        <mxPoint x="798" y="370" as="sourcePoint"/>
                        <mxPoint x="548" y="370" as="targetPoint"/>
                        <mxPoint as="offset"/>
                        <Array as="points">
                            <mxPoint x="709" y="380"/>
                            <mxPoint x="688" y="380"/>
                        </Array>
                    </mxGeometry>
                </mxCell>
                <mxCell id="11" value="Here are the venues objects" style="html=1;verticalAlign=bottom;endArrow=open;dashed=1;endSize=8;fontSize=13;" parent="1" edge="1">
                    <mxGeometry relative="1" as="geometry">
                        <mxPoint x="1288.5" y="350" as="sourcePoint"/>
                        <mxPoint x="798" y="350" as="targetPoint"/>
                    </mxGeometry>
                </mxCell>
            </root>
        </mxGraphModel>
    </diagram>
</mxfile>
